<svg xmlns="http://www.w3.org/2000/svg" width="127" height="32" fill="none"><path fill="#131313" d="M3.139 29.68h27.374V2.32H3.14v27.36Zm22.105-16.313H19.46v-5.78h5.784v5.78ZM8.407 7.587h5.787v11.046h11.05v5.78H8.407V7.587ZM48.339 2.32a13.692 13.692 0 0 0-12.645 8.445 13.673 13.673 0 0 0 2.967 14.908A13.689 13.689 0 0 0 62.026 16a13.692 13.692 0 0 0-4.014-9.669A13.706 13.706 0 0 0 48.34 2.32Zm0 22.094a8.421 8.421 0 0 1-7.777-5.194 8.41 8.41 0 0 1 1.824-9.17A8.42 8.42 0 0 1 56.757 16a8.425 8.425 0 0 1-8.418 8.414ZM111.005 2.32a13.691 13.691 0 0 0-12.646 8.444 13.673 13.673 0 0 0 2.967 14.909A13.689 13.689 0 0 0 124.692 16a13.698 13.698 0 0 0-13.687-13.68Zm0 22.094a8.424 8.424 0 0 1-7.778-5.194 8.41 8.41 0 0 1 1.824-9.17 8.425 8.425 0 0 1 9.174-1.824A8.415 8.415 0 0 1 119.423 16a8.43 8.43 0 0 1-8.418 8.414ZM79.672 2.32a13.692 13.692 0 0 0-12.646 8.445 13.673 13.673 0 0 0 2.967 14.908A13.69 13.69 0 0 0 93.36 16a13.693 13.693 0 0 0-4.014-9.669 13.707 13.707 0 0 0-9.673-4.011Zm0 22.094a8.422 8.422 0 0 1-7.5-4.584 8.41 8.41 0 0 1 4.253-11.595 8.422 8.422 0 0 1 11.238 5.132h-7.991v5.265h7.991a8.427 8.427 0 0 1-7.991 5.782Z"/></svg>