<svg xmlns="http://www.w3.org/2000/svg" width="58" height="32" fill="none"><g clip-path="url(#a)"><path fill="#131313" d="M57.995 11.381a.501.501 0 0 0 0-.134.353.353 0 0 0 0-.11l-.43-3.128A2.036 2.036 0 0 0 57.088 7l-.074-.085-.134-.134L49.44.426l.209.207a1.779 1.779 0 0 0-1.4-.633h-2.258a1.642 1.642 0 0 0-1.019.329A1.778 1.778 0 0 0 43.917 0h-2.259a1.692 1.692 0 0 0-1.473.816c-.233.36-.32.795-.245 1.217l.282 1.972a1.235 1.235 0 0 0-.614-.158H28.672a2.063 2.063 0 0 0-1.105.328c-.318.198-.573.48-.736.816l-.847-.718a1.763 1.763 0 0 0-1.228-.463H7.596a2.273 2.273 0 0 0-1.116.317 2.047 2.047 0 0 0-.946 1.217L.084 23.419a1.57 1.57 0 0 0 .467 1.704c.062.052.128.101.196.146 0 0-.11-.073-.172-.134l7.439 6.366c.314.287.726.448 1.154.45h17.294c.395-.01.78-.123 1.117-.328.19-.104.361-.24.504-.402l.06-.085.1-.122.073-.134.81.694c.31.276.712.428 1.13.426h17.33a2.32 2.32 0 0 0 1.118-.329c.186-.11.355-.244.503-.401l.061-.085.099-.122a1.61 1.61 0 0 0 .135-.244c.04-.073.072-.15.098-.23l4.97-16.506v-.146a.783.783 0 0 0 0-.17v-.11a.336.336 0 0 0 0-.11 1.594 1.594 0 0 0 0-.23h1.597c.138.012.278.012.417 0h.11c.09-.027.177-.064.258-.11h.123l.22-.17.099-.074.172-.219v-.073l.123-.207a.36.36 0 0 1 0-.121.098.098 0 0 1 0-.061c.026-.072.046-.145.061-.22a.156.156 0 0 1 0-.072.335.335 0 0 1 0-.11s.245-.475.245-.499Z"/><path fill="#DCDCDC" d="M25.26 5.198a.425.425 0 0 1 .11.474l-5.438 18.063a.841.841 0 0 1-.392.463c-.15.1-.324.158-.504.17H1.754a.603.603 0 0 1-.393-.17.425.425 0 0 1-.11-.463L6.7 5.672a.841.841 0 0 1 .38-.474c.152-.093.325-.147.503-.159h17.283a.58.58 0 0 1 .392.159Zm-9.022 14.898L19.49 9.312h-9.107l-3.24 10.784h9.095ZM41.756 5.38a.601.601 0 0 0 .479.207h2.246a.507.507 0 0 0 .43-.231.51.51 0 0 0 .086-.39l-.442-3.213a1.02 1.02 0 0 0-.221-.402.602.602 0 0 0-.479-.206H41.61a.507.507 0 0 0-.43.23c-.086.171-.122.28-.086.378l.455 3.213a.74.74 0 0 0 .208.414Zm7.132-3.651a1.02 1.02 0 0 0-.221-.402.576.576 0 0 0-.467-.207h-2.258a.47.47 0 0 0-.417.231.508.508 0 0 0-.099.378l.454 3.213a.824.824 0 0 0 .21.414.625.625 0 0 0 .478.207h2.258a.481.481 0 0 0 .418-.231.461.461 0 0 0 .086-.39l-.442-3.213ZM39.78 6.597l-.22-1.582H28.671a.963.963 0 0 0-.479.158.711.711 0 0 0-.356.475l-.908 3.019a.411.411 0 0 0 .073.462.592.592 0 0 0 .38.158h13.233l-3.253 10.785H24.167a.926.926 0 0 0-.479.146.828.828 0 0 0-.356.474l-.92 3.02a.446.446 0 0 0 .086.462c.1.102.236.163.38.17H40.21c.179-.015.352-.074.503-.17a.816.816 0 0 0 .38-.463l4.984-16.505h-5.61a.655.655 0 0 1-.478-.195.885.885 0 0 1-.209-.39v-.024Z"/></g><defs><clipPath id="a"><path fill="#fff" d="M0 0h58v32H0z"/></clipPath></defs></svg>