<svg xmlns="http://www.w3.org/2000/svg" width="162" height="32" fill="none"><g fill="#131313" clip-path="url(#a)"><path fill-rule="evenodd" d="M20.495 9.348A8.034 8.034 0 0 0 16.04 8V0c3.172 0 6.273.938 8.91 2.696a16.01 16.01 0 0 1 5.908 7.181 15.964 15.964 0 0 1-3.477 17.437 16.052 16.052 0 0 1-8.212 4.379 16.09 16.09 0 0 1-9.268-.91 16.032 16.032 0 0 1-7.198-5.894A15.972 15.972 0 0 1 0 16h8.02a7.99 7.99 0 0 0 1.351 4.445 8.015 8.015 0 0 0 3.6 2.946 8.036 8.036 0 0 0 8.74-1.734 7.98 7.98 0 0 0 1.738-8.718 8.004 8.004 0 0 0-2.954-3.59Z" clip-rule="evenodd"/><path fill-rule="evenodd" d="M8.02 0a7.983 7.983 0 0 1-2.35 5.657A8.021 8.021 0 0 1 0 8v8a16.074 16.074 0 0 0 11.342-4.686A15.967 15.967 0 0 0 16.04 0H8.02Z" clip-rule="evenodd"/><path d="M100.744 11.562h-3.891v12.33h3.891v-12.33Zm-3.458-2.309c.406.406.915.61 1.525.61.61 0 1.11-.204 1.501-.61.39-.423.585-.93.585-1.522 0-.609-.195-1.116-.585-1.522-.39-.406-.89-.609-1.5-.609-.611 0-1.12.203-1.526.609-.39.406-.586.913-.586 1.522 0 .592.195 1.1.586 1.522Zm-56.26 14.639V5.98h3.993v14.41h7.96v3.5H41.027Z"/><path fill-rule="evenodd" d="M60.17 24.17c-1.271 0-2.424-.278-3.458-.836A6.524 6.524 0 0 1 54.295 21c-.593-.981-.89-2.08-.89-3.299 0-1.217.297-2.308.89-3.272a6.394 6.394 0 0 1 2.417-2.284c1.017-.575 2.17-.862 3.458-.862 1.29 0 2.442.279 3.46.837a6.332 6.332 0 0 1 2.416 2.309c.593.964.89 2.055.89 3.272 0 1.218-.297 2.318-.89 3.299a6.523 6.523 0 0 1-2.417 2.334c-1.017.558-2.17.837-3.459.837Zm0-3.526c.56 0 1.052-.118 1.476-.355.423-.253.746-.6.966-1.04.237-.457.356-.973.356-1.547 0-.576-.119-1.075-.356-1.497a2.49 2.49 0 0 0-.992-1.015c-.407-.254-.89-.38-1.45-.38a2.77 2.77 0 0 0-1.45.38 2.49 2.49 0 0 0-.991 1.015c-.237.44-.356.947-.356 1.522 0 .558.119 1.065.356 1.522.237.44.568.787.992 1.04a2.92 2.92 0 0 0 1.45.355Zm9.847 8.068c1.035.474 2.23.71 3.587.71 1.322 0 2.5-.262 3.535-.786 1.034-.524 1.848-1.252 2.441-2.182.594-.93.89-2.03.89-3.298V11.562h-3.815v.828a4.111 4.111 0 0 0-.966-.6c-.661-.321-1.416-.482-2.263-.482-1.136 0-2.145.27-3.027.812a5.622 5.622 0 0 0-2.086 2.182c-.508.913-.763 1.945-.763 3.095 0 1.133.255 2.165.763 3.095A5.81 5.81 0 0 0 70.4 22.7c.882.542 1.89.812 3.026.812.831 0 1.586-.16 2.264-.482a4.54 4.54 0 0 0 .89-.55v.779c0 .862-.28 1.53-.84 2.004-.542.473-1.296.71-2.263.71-.78 0-1.45-.135-2.009-.406-.542-.27-1.034-.668-1.475-1.192l-2.39 2.385c.593.845 1.398 1.497 2.415 1.953Zm5.545-9.006c-.39.236-.856.355-1.399.355s-1.017-.119-1.424-.355a2.506 2.506 0 0 1-.916-.964 2.867 2.867 0 0 1-.33-1.345c0-.507.11-.964.33-1.37.22-.406.534-.727.941-.964a2.73 2.73 0 0 1 1.399-.355c.543 0 1.009.118 1.399.355.407.237.712.558.915.964.22.406.331.863.331 1.37 0 .508-.11.964-.33 1.37-.204.39-.51.702-.916.939ZM88.66 24.17c-1.272 0-2.425-.278-3.46-.836A6.522 6.522 0 0 1 82.785 21c-.593-.981-.89-2.08-.89-3.299 0-1.217.297-2.308.89-3.272a6.392 6.392 0 0 1 2.417-2.284c1.017-.575 2.17-.862 3.459-.862 1.288 0 2.441.279 3.458.837a6.33 6.33 0 0 1 2.416 2.309c.594.964.89 2.055.89 3.272 0 1.218-.296 2.318-.89 3.299a6.521 6.521 0 0 1-2.416 2.334c-1.017.558-2.17.837-3.458.837Zm0-3.526c.559 0 1.05-.118 1.475-.355.423-.253.745-.6.966-1.04.237-.457.356-.973.356-1.547 0-.576-.119-1.075-.356-1.497a2.488 2.488 0 0 0-.992-1.015c-.407-.254-.89-.38-1.45-.38-.542 0-1.026.126-1.45.38a2.488 2.488 0 0 0-.991 1.015c-.238.44-.356.947-.356 1.522 0 .558.118 1.065.356 1.522.237.44.567.787.992 1.04a2.92 2.92 0 0 0 1.45.355Zm21.437 3.501a5.39 5.39 0 0 1-2.289-.482 4.847 4.847 0 0 1-.991-.605v6.035h-3.841V11.562h3.891v.85a4.8 4.8 0 0 1 .941-.596 5.161 5.161 0 0 1 2.289-.508c1.17 0 2.204.28 3.102.838a5.781 5.781 0 0 1 2.137 2.283c.526.964.788 2.063.788 3.298 0 1.235-.262 2.334-.788 3.298a5.782 5.782 0 0 1-2.137 2.283c-.898.558-1.932.837-3.102.837Zm-.712-3.5c.559 0 1.043-.127 1.449-.381.425-.254.755-.6.992-1.04.238-.44.357-.939.357-1.497 0-.575-.119-1.082-.357-1.522a2.48 2.48 0 0 0-.992-1.015c-.406-.254-.881-.38-1.424-.38-.542 0-1.026.126-1.449.38a2.536 2.536 0 0 0-.966 1.015c-.238.44-.357.947-.357 1.522 0 .558.11 1.057.331 1.497.237.44.568.786.992 1.04.423.254.898.38 1.424.38Z" clip-rule="evenodd"/><path d="M119.933 23.917a8.51 8.51 0 0 0 2.161.28c1.543 0 2.764-.356 3.663-1.066.915-.71 1.373-1.666 1.373-2.867 0-.778-.144-1.404-.432-1.877a3.36 3.36 0 0 0-1.119-1.168 6.7 6.7 0 0 0-1.45-.684c-.509-.17-.992-.313-1.449-.432a5.265 5.265 0 0 1-1.12-.406c-.288-.152-.432-.355-.432-.609 0-.236.111-.414.33-.532.221-.136.551-.203.992-.203.458 0 .924.093 1.399.279.492.186.933.507 1.322.964l2.213-2.233c-.559-.71-1.288-1.243-2.187-1.598-.881-.372-1.848-.558-2.899-.558-1 0-1.873.169-2.619.507-.747.338-1.324.804-1.73 1.396-.407.575-.61 1.26-.61 2.055 0 .744.144 1.361.432 1.852.288.473.661.845 1.119 1.116.457.27.941.482 1.45.634l1.449.431c.458.119.831.262 1.119.432.306.152.458.38.458.685 0 .236-.127.422-.382.558-.237.135-.584.203-1.042.203a4.645 4.645 0 0 1-1.831-.355 4.46 4.46 0 0 1-1.45-1.04l-2.213 2.232c.425.457.933.863 1.526 1.218.611.338 1.264.6 1.959.786Zm14.293.253c-1.136 0-2.145-.227-3.026-.684a5.311 5.311 0 0 1-2.035-1.928c-.492-.829-.738-1.776-.738-2.842v-7.154h3.892v7.104c0 .422.067.786.203 1.09.153.305.373.542.661.71.289.17.636.255 1.043.255.576 0 1.034-.178 1.374-.533.339-.372.508-.88.508-1.522v-7.104h3.891v7.129c0 1.082-.245 2.038-.738 2.867a5.302 5.302 0 0 1-2.034 1.928c-.865.457-1.865.685-3.001.685Zm11.599-12.608h-3.891v12.33h3.891v-7.205c0-.423.085-.778.254-1.066.187-.287.433-.507.738-.66a2.115 2.115 0 0 1 1.042-.253c.56 0 1.026.177 1.399.533.391.338.586.82.586 1.446v7.205h3.891v-7.205c0-.423.085-.778.254-1.066.187-.287.432-.507.738-.66a2.115 2.115 0 0 1 1.042-.253c.56 0 1.026.177 1.399.533.39.338.585.82.585 1.446v7.205h3.892v-7.637c0-1.031-.221-1.91-.662-2.638a4.241 4.241 0 0 0-1.755-1.7c-.729-.406-1.568-.609-2.518-.609-.966 0-1.84.212-2.619.635-.507.269-.95.617-1.329 1.043a4.334 4.334 0 0 0-1.291-1.094c-.678-.39-1.449-.584-2.314-.584-.916 0-1.738.195-2.467.584a4.28 4.28 0 0 0-.865.581v-.911Z"/></g><defs><clipPath id="a"><path fill="#fff" d="M0 0h162v32H0z"/></clipPath></defs></svg>