<svg xmlns="http://www.w3.org/2000/svg" width="131" height="32" fill="none"><path fill="#131313" d="M23.86 14.262a3.902 3.902 0 0 0-1.113 3.125l-.02-.02a4.641 4.641 0 0 1-1.337 3.667 4.621 4.621 0 0 1-3.658 1.34l.02.02a3.907 3.907 0 0 0-3.907 2.239 3.931 3.931 0 0 0 .777 4.442 3.912 3.912 0 0 0 6.664-3.142l.02.019a4.641 4.641 0 0 1 1.338-3.666 4.622 4.622 0 0 1 3.658-1.341l-.02-.02a3.9 3.9 0 0 0 3.446-1.511 3.92 3.92 0 0 0-2.254-6.212 3.899 3.899 0 0 0-3.61 1.06h-.004Z"/><path fill="#131313" d="m16.009 19.878-.02-.019a3.856 3.856 0 0 0 3.119-1.114 3.874 3.874 0 0 0 1.113-3.125l.02.02a4.642 4.642 0 0 1 1.338-3.667 4.622 4.622 0 0 1 3.658-1.34l-.02-.02a3.907 3.907 0 0 0 3.909-2.236 3.931 3.931 0 0 0-.775-4.444 3.911 3.911 0 0 0-6.167.829 3.93 3.93 0 0 0-.498 2.312l-.02-.02a4.643 4.643 0 0 1-1.337 3.667 4.623 4.623 0 0 1-3.658 1.34l.02.02a3.856 3.856 0 0 0-3.12 1.114 3.877 3.877 0 0 0-1.114 3.125l-.019-.02a4.645 4.645 0 0 1-1.338 3.667 4.625 4.625 0 0 1-3.657 1.34l.019.02a3.907 3.907 0 0 0-3.909 2.237 3.931 3.931 0 0 0 .775 4.443 3.91 3.91 0 0 0 6.167-.829 3.93 3.93 0 0 0 .498-2.312l.02.02a4.644 4.644 0 0 1 1.338-3.667 4.621 4.621 0 0 1 3.658-1.34Z"/><path fill="#131313" d="M8.876 17.738a3.897 3.897 0 0 0 1.112-3.125l.02.02a4.643 4.643 0 0 1 1.339-3.668 4.623 4.623 0 0 1 3.66-1.34l-.02-.019a3.906 3.906 0 0 0 3.906-2.236 3.93 3.93 0 0 0-.775-4.442 3.91 3.91 0 0 0-6.165.828c-.4.7-.573 1.508-.498 2.311l-.02-.02a4.642 4.642 0 0 1-1.337 3.667 4.622 4.622 0 0 1-3.658 1.34l.02.02a3.898 3.898 0 0 0-3.447 1.513 3.92 3.92 0 0 0 2.255 6.21 3.9 3.9 0 0 0 3.61-1.06h-.002ZM41.844 7.099h3.161v15.416h-3.16V7.1Zm4.952 10.137a5.606 5.606 0 0 1 .93-3.115 5.572 5.572 0 0 1 8.595-.872 5.6 5.6 0 0 1 1.22 6.101 5.58 5.58 0 0 1-5.161 3.461 5.51 5.51 0 0 1-3.96-1.613 5.534 5.534 0 0 1-1.624-3.962Zm8.007 0a2.434 2.434 0 0 0-1.542-2.196 2.419 2.419 0 0 0-2.62.57 2.431 2.431 0 0 0 1.739 4.123 2.359 2.359 0 0 0 2.276-1.537 2.36 2.36 0 0 0 .147-.96Zm15.759-5.28v10.027c0 3.548-2.76 5.047-5.563 5.047a5.378 5.378 0 0 1-4.993-2.56l2.696-1.562a2.41 2.41 0 0 0 2.402 1.33 2.096 2.096 0 0 0 2.25-1.334c.113-.295.157-.61.131-.925v-.966a3.744 3.744 0 0 1-3.077 1.373 5.349 5.349 0 0 1-3.676-1.63 5.373 5.373 0 0 1 0-7.468 5.349 5.349 0 0 1 3.676-1.63 3.736 3.736 0 0 1 3.077 1.373v-1.077l3.077.002Zm-3.076 5.068a2.564 2.564 0 0 0-1.502-2.44 2.549 2.549 0 0 0-2.819.487 2.562 2.562 0 0 0 1.772 4.406 2.38 2.38 0 0 0 2.373-1.479c.126-.309.186-.64.176-.974Zm4.866.212a5.606 5.606 0 0 1 .93-3.115 5.572 5.572 0 0 1 8.595-.872 5.6 5.6 0 0 1 1.221 6.101 5.58 5.58 0 0 1-5.161 3.461 5.51 5.51 0 0 1-3.96-1.613 5.534 5.534 0 0 1-1.625-3.962Zm8.008 0a2.435 2.435 0 0 0-1.542-2.196 2.419 2.419 0 0 0-2.62.57 2.432 2.432 0 0 0 1.739 4.123 2.358 2.358 0 0 0 1.757-.716 2.37 2.37 0 0 0 .666-1.78Zm4.635-8.11a1.904 1.904 0 0 1 1.17-1.756 1.893 1.893 0 0 1 2.587 1.386 1.907 1.907 0 0 1-.807 1.95c-.312.21-.678.321-1.054.321a1.922 1.922 0 0 1-1.897-1.9Zm.32 2.83h3.161v10.56H85.31l.004-10.56Zm16.81 5.28a5.317 5.317 0 0 1-1.362 3.837 5.293 5.293 0 0 1-3.675 1.738 3.946 3.946 0 0 1-3.138-1.289v5.217h-3.161V11.956h3.16v.992a3.954 3.954 0 0 1 3.14-1.287 5.28 5.28 0 0 1 3.675 1.738 5.312 5.312 0 0 1 1.361 3.837Zm-3.161 0a2.517 2.517 0 0 0-1.591-2.276 2.502 2.502 0 0 0-2.711.585 2.515 2.515 0 0 0 1.795 4.267 2.4 2.4 0 0 0 2.365-1.578c.117-.319.165-.659.142-.998Zm12.915 2.111c0 2.429-2.106 3.464-4.382 3.464a4.603 4.603 0 0 1-2.65-.56 4.621 4.621 0 0 1-1.881-1.953l2.739-1.563a1.728 1.728 0 0 0 1.788 1.246c.758 0 1.138-.233 1.138-.654 0-1.163-5.185-.55-5.185-4.203 0-2.303 1.94-3.463 4.131-3.463a4.6 4.6 0 0 1 4.108 2.259l-2.697 1.457a1.53 1.53 0 0 0-1.411-.929c-.548 0-.886.213-.886.59.005 1.205 5.188.402 5.188 4.31Zm11.546-7.391v10.56h-3.161v-.993a3.593 3.593 0 0 1-3.012 1.289c-2.128 0-3.938-1.52-3.938-4.374v-6.482h3.161v6.018a1.76 1.76 0 0 0 .084.745 1.73 1.73 0 0 0 1.749 1.175c1.159 0 1.959-.675 1.959-2.174v-5.76l3.158-.004Zm18.125 4.076v6.483h-3.161v-6.209c0-1.056-.505-1.731-1.517-1.731-1.053 0-1.644.74-1.644 1.985v5.955h-3.16v-6.209c0-1.056-.505-1.731-1.517-1.731-1.054 0-1.644.74-1.644 1.985v5.955h-3.161v-10.56h3.161v.97a3.24 3.24 0 0 1 2.824-1.265 3.128 3.128 0 0 1 2.76 1.393 3.472 3.472 0 0 1 3.055-1.393c2.419 0 4.004 1.732 4.004 4.372Z"/></svg>